# This file uses centimeters as units for non-parametric coordinates.

v 7.899589 3.568280 -5.677887
v -8.063281 3.174415 -5.314533
v -7.845604 8.304623 9.809421
v 8.117267 8.698488 9.446065
v -0.319254 16.628182 -1.556001
vt 0.500000 0.000000
vt 0.250000 0.250000
vt 0.500000 0.500000
vt 0.750000 0.250000
vt 0.250000 0.500000
vt 0.375000 0.500000
vt 0.500000 0.500000
vt 0.625000 0.500000
vt 0.750000 0.500000
vt 0.500000 1.000000
vn 0.030658 -0.946689 0.320686
vn 0.030658 -0.946689 0.320686
vn 0.030658 -0.946689 0.320686
vn 0.030658 -0.946689 0.320686
vn -0.028828 0.284310 -0.958299
vn -0.028828 0.284310 -0.958299
vn -0.028828 0.284310 -0.958299
vn -0.833737 0.526437 -0.166573
vn -0.833737 0.526437 -0.166573
vn -0.833737 0.526437 -0.166573
vn -0.006573 0.808832 0.588003
vn -0.006573 0.808832 0.588003
vn -0.006572 0.808832 0.588003
vn 0.798336 0.566706 -0.203723
vn 0.798336 0.566706 -0.203723
vn 0.798336 0.566706 -0.203723
f 1/1/1 4/4/2 3/3/3 2/2/4
f 1/5/5 2/6/6 5/10/7
f 2/6/8 3/7/9 5/10/10
f 3/7/11 4/8/12 5/10/13
f 4/8/14 1/9/15 5/10/16
